<svg xmlns="http://www.w3.org/2000/svg" xmlns:xlink="http://www.w3.org/1999/xlink" width="270.336" height="74.167" viewBox="0 0 270.336 74.167">
  <defs>
    <clipPath id="clip-path">
      <path id="Path_80" data-name="Path 80" d="M37.544,42.766A27.265,27.265,0,1,0,64.808,15.5,27.264,27.264,0,0,0,37.544,42.766" transform="translate(-37.544 -15.501)" fill="none"/>
    </clipPath>
    <clipPath id="clip-path-2">
      <rect id="Rectangle_4502" data-name="Rectangle 4502" width="270.336" height="74.167" fill="none"/>
    </clipPath>
  </defs>
  <g id="Group_394" data-name="Group 394" transform="translate(0 0.001)">
    <rect id="Rectangle_4430" data-name="Rectangle 4430" width="1.122" height="29.667" transform="translate(36.523 44.499)" fill="#fff"/>
    <rect id="Rectangle_4431" data-name="Rectangle 4431" width="1.122" height="29.667" transform="matrix(0.985, -0.174, 0.174, 0.985, 37.819, 44.485)" fill="#fff"/>
    <rect id="Rectangle_4432" data-name="Rectangle 4432" width="1.121" height="29.667" transform="translate(39.095 44.243) rotate(-19.993)" fill="#fff"/>
    <rect id="Rectangle_4433" data-name="Rectangle 4433" width="1.122" height="29.667" transform="matrix(0.866, -0.5, 0.5, 0.866, 40.307, 43.785)" fill="#fff"/>
    <rect id="Rectangle_4434" data-name="Rectangle 4434" width="1.122" height="29.667" transform="matrix(0.766, -0.643, 0.643, 0.766, 41.424, 43.122)" fill="#fff"/>
    <rect id="Rectangle_4435" data-name="Rectangle 4435" width="1.121" height="29.667" transform="translate(42.402 42.283) rotate(-50.016)" fill="#fff"/>
    <rect id="Rectangle_4436" data-name="Rectangle 4436" width="1.122" height="29.667" transform="matrix(0.5, -0.866, 0.866, 0.5, 43.226, 41.278)" fill="#fff"/>
    <rect id="Rectangle_4437" data-name="Rectangle 4437" width="1.121" height="29.667" transform="translate(43.861 40.148) rotate(-70.007)" fill="#fff"/>
    <rect id="Rectangle_4438" data-name="Rectangle 4438" width="1.122" height="29.667" transform="translate(44.29 38.923) rotate(-79.999)" fill="#fff"/>
    <rect id="Rectangle_4439" data-name="Rectangle 4439" width="29.667" height="1.121" transform="translate(44.5 36.522)" fill="#fff"/>
    <rect id="Rectangle_4440" data-name="Rectangle 4440" width="29.667" height="1.122" transform="translate(44.29 35.243) rotate(-10)" fill="#fff"/>
    <rect id="Rectangle_4441" data-name="Rectangle 4441" width="29.667" height="1.121" transform="matrix(0.94, -0.342, 0.342, 0.94, 43.861, 34.019)" fill="#fff"/>
    <rect id="Rectangle_4442" data-name="Rectangle 4442" width="29.667" height="1.122" transform="matrix(0.866, -0.5, 0.5, 0.866, 43.226, 32.889)" fill="#fff"/>
    <rect id="Rectangle_4443" data-name="Rectangle 4443" width="29.667" height="1.121" transform="translate(42.405 31.886) rotate(-40)" fill="#fff"/>
    <rect id="Rectangle_4444" data-name="Rectangle 4444" width="29.666" height="1.122" transform="translate(41.421 31.041) rotate(-50)" fill="#fff"/>
    <rect id="Rectangle_4445" data-name="Rectangle 4445" width="29.667" height="1.122" transform="matrix(0.5, -0.866, 0.866, 0.5, 40.306, 30.379)" fill="#fff"/>
    <rect id="Rectangle_4446" data-name="Rectangle 4446" width="29.667" height="1.121" transform="translate(39.093 29.921) rotate(-70)" fill="#fff"/>
    <rect id="Rectangle_4447" data-name="Rectangle 4447" width="29.667" height="1.122" transform="translate(37.819 29.681) rotate(-80)" fill="#fff"/>
    <rect id="Rectangle_4448" data-name="Rectangle 4448" width="1.122" height="29.667" transform="translate(36.523 -0.001)" fill="#fff"/>
    <rect id="Rectangle_4449" data-name="Rectangle 4449" width="1.122" height="29.667" transform="translate(30.092 0.66) rotate(-10.001)" fill="#fff"/>
    <rect id="Rectangle_4450" data-name="Rectangle 4450" width="1.121" height="29.667" transform="translate(23.875 2.427) rotate(-19.993)" fill="#fff"/>
    <rect id="Rectangle_4451" data-name="Rectangle 4451" width="1.122" height="29.667" transform="translate(18.057 5.248) rotate(-29.998)" fill="#fff"/>
    <rect id="Rectangle_4452" data-name="Rectangle 4452" width="1.122" height="29.666" transform="matrix(0.766, -0.643, 0.643, 0.766, 12.821, 9.033)" fill="#fff"/>
    <rect id="Rectangle_4453" data-name="Rectangle 4453" width="1.121" height="29.667" transform="matrix(0.643, -0.766, 0.766, 0.643, 8.313, 13.679)" fill="#fff"/>
    <rect id="Rectangle_4454" data-name="Rectangle 4454" width="1.122" height="29.667" transform="translate(4.688 19.027) rotate(-60.002)" fill="#fff"/>
    <rect id="Rectangle_4455" data-name="Rectangle 4455" width="1.121" height="29.667" transform="translate(2.044 24.928) rotate(-70.007)" fill="#fff"/>
    <rect id="Rectangle_4456" data-name="Rectangle 4456" width="1.122" height="29.667" transform="translate(0.466 31.195) rotate(-79.999)" fill="#fff"/>
    <rect id="Rectangle_4457" data-name="Rectangle 4457" width="29.667" height="1.122" transform="translate(0 36.522)" fill="#fff"/>
    <rect id="Rectangle_4458" data-name="Rectangle 4458" width="29.667" height="1.122" transform="matrix(0.985, -0.174, 0.174, 0.985, 0.466, 42.97)" fill="#fff"/>
    <rect id="Rectangle_4459" data-name="Rectangle 4459" width="29.667" height="1.121" transform="translate(2.045 49.239) rotate(-20)" fill="#fff"/>
    <rect id="Rectangle_4460" data-name="Rectangle 4460" width="29.667" height="1.122" transform="translate(4.688 55.139) rotate(-30)" fill="#fff"/>
    <rect id="Rectangle_4461" data-name="Rectangle 4461" width="29.667" height="1.121" transform="translate(8.316 60.49) rotate(-40)" fill="#fff"/>
    <rect id="Rectangle_4462" data-name="Rectangle 4462" width="29.667" height="1.122" transform="matrix(0.643, -0.766, 0.766, 0.643, 12.817, 65.13)" fill="#fff"/>
    <rect id="Rectangle_4463" data-name="Rectangle 4463" width="29.667" height="1.122" transform="matrix(0.5, -0.866, 0.866, 0.5, 18.056, 68.918)" fill="#fff"/>
    <rect id="Rectangle_4464" data-name="Rectangle 4464" width="29.667" height="1.121" transform="translate(23.873 71.738) rotate(-70)" fill="#fff"/>
    <rect id="Rectangle_4465" data-name="Rectangle 4465" width="29.667" height="1.122" transform="translate(30.092 73.506) rotate(-80)" fill="#fff"/>
    <g id="Group_391" data-name="Group 391" transform="translate(14.423 5.954)">
      <g id="Group_390" data-name="Group 390" clip-path="url(#clip-path)">
        <rect id="Rectangle_4466" data-name="Rectangle 4466" width="2.243" height="29.667" transform="translate(21.539 38.545)" fill="#fff"/>
        <rect id="Rectangle_4467" data-name="Rectangle 4467" width="2.243" height="29.666" transform="matrix(0.985, -0.174, 0.174, 0.985, 22.844, 38.627)" fill="#fff"/>
        <rect id="Rectangle_4468" data-name="Rectangle 4468" width="2.243" height="29.667" transform="translate(24.143 38.481) rotate(-19.999)" fill="#fff"/>
        <rect id="Rectangle_4469" data-name="Rectangle 4469" width="2.243" height="29.667" transform="translate(25.397 38.111) rotate(-29.999)" fill="#fff"/>
        <rect id="Rectangle_4470" data-name="Rectangle 4470" width="2.243" height="29.667" transform="matrix(0.766, -0.643, 0.643, 0.766, 26.569, 37.53)" fill="#fff"/>
        <rect id="Rectangle_4471" data-name="Rectangle 4471" width="2.243" height="29.667" transform="translate(27.621 36.756) rotate(-50.002)" fill="#fff"/>
        <rect id="Rectangle_4472" data-name="Rectangle 4472" width="2.243" height="29.667" transform="translate(28.522 35.808) rotate(-60.001)" fill="#fff"/>
        <rect id="Rectangle_4473" data-name="Rectangle 4473" width="2.243" height="29.667" transform="translate(29.246 34.719) rotate(-70.001)" fill="#fff"/>
        <rect id="Rectangle_4474" data-name="Rectangle 4474" width="2.243" height="29.667" transform="translate(29.769 33.521) rotate(-80)" fill="#fff"/>
        <rect id="Rectangle_4475" data-name="Rectangle 4475" width="29.667" height="2.243" transform="translate(30.077 30.007)" fill="#fff"/>
        <rect id="Rectangle_4476" data-name="Rectangle 4476" width="29.667" height="2.243" transform="translate(29.769 28.736) rotate(-10)" fill="#fff"/>
        <rect id="Rectangle_4477" data-name="Rectangle 4477" width="29.667" height="2.243" transform="translate(29.246 27.538) rotate(-20)" fill="#fff"/>
        <rect id="Rectangle_4478" data-name="Rectangle 4478" width="29.667" height="2.243" transform="matrix(0.866, -0.5, 0.5, 0.866, 28.523, 26.449)" fill="#fff"/>
        <rect id="Rectangle_4479" data-name="Rectangle 4479" width="29.667" height="2.243" transform="matrix(0.766, -0.643, 0.643, 0.766, 27.621, 25.502)" fill="#fff"/>
        <rect id="Rectangle_4480" data-name="Rectangle 4480" width="29.667" height="2.243" transform="translate(26.568 24.726) rotate(-50)" fill="#fff"/>
        <rect id="Rectangle_4481" data-name="Rectangle 4481" width="29.667" height="2.243" transform="matrix(0.5, -0.866, 0.866, 0.5, 25.398, 24.145)" fill="#fff"/>
        <rect id="Rectangle_4482" data-name="Rectangle 4482" width="29.667" height="2.243" transform="matrix(0.342, -0.94, 0.94, 0.342, 24.143, 23.775)" fill="#fff"/>
        <rect id="Rectangle_4483" data-name="Rectangle 4483" width="29.667" height="2.243" transform="translate(22.844 23.629) rotate(-80)" fill="#fff"/>
        <rect id="Rectangle_4484" data-name="Rectangle 4484" width="2.243" height="29.667" transform="translate(21.539 -5.955)" fill="#fff"/>
        <rect id="Rectangle_4485" data-name="Rectangle 4485" width="2.243" height="29.667" transform="translate(15.116 -5.197) rotate(-9.999)" fill="#fff"/>
        <rect id="Rectangle_4486" data-name="Rectangle 4486" width="2.243" height="29.667" transform="translate(8.923 -3.335) rotate(-19.999)" fill="#fff"/>
        <rect id="Rectangle_4487" data-name="Rectangle 4487" width="2.243" height="29.667" transform="translate(3.147 -0.426) rotate(-29.999)" fill="#fff"/>
        <rect id="Rectangle_4488" data-name="Rectangle 4488" width="2.243" height="29.667" transform="translate(-2.035 3.442) rotate(-39.998)" fill="#fff"/>
        <rect id="Rectangle_4489" data-name="Rectangle 4489" width="2.243" height="29.667" transform="translate(-6.469 8.151) rotate(-50.002)" fill="#fff"/>
        <rect id="Rectangle_4490" data-name="Rectangle 4490" width="2.243" height="29.667" transform="translate(-10.016 13.558) rotate(-60.001)" fill="#fff"/>
        <rect id="Rectangle_4491" data-name="Rectangle 4491" width="2.243" height="29.667" transform="translate(-12.57 19.499) rotate(-70.001)" fill="#fff"/>
        <rect id="Rectangle_4492" data-name="Rectangle 4492" width="2.243" height="29.667" transform="translate(-14.055 25.793) rotate(-80.001)" fill="#fff"/>
        <rect id="Rectangle_4493" data-name="Rectangle 4493" width="29.667" height="2.243" transform="translate(-14.423 30.007)" fill="#fff"/>
        <rect id="Rectangle_4494" data-name="Rectangle 4494" width="29.667" height="2.243" transform="matrix(0.985, -0.174, 0.174, 0.985, -14.055, 36.463)" fill="#fff"/>
        <rect id="Rectangle_4495" data-name="Rectangle 4495" width="29.667" height="2.243" transform="translate(-12.571 42.758) rotate(-20)" fill="#fff"/>
        <rect id="Rectangle_4496" data-name="Rectangle 4496" width="29.667" height="2.243" transform="matrix(0.866, -0.5, 0.5, 0.866, -10.016, 48.699)" fill="#fff"/>
        <rect id="Rectangle_4497" data-name="Rectangle 4497" width="29.667" height="2.243" transform="translate(-6.468 54.106) rotate(-40.001)" fill="#fff"/>
        <rect id="Rectangle_4498" data-name="Rectangle 4498" width="29.667" height="2.243" transform="translate(-2.036 58.815) rotate(-49.999)" fill="#fff"/>
        <rect id="Rectangle_4499" data-name="Rectangle 4499" width="29.667" height="2.243" transform="matrix(0.5, -0.866, 0.866, 0.5, 3.147, 62.683)" fill="#fff"/>
        <rect id="Rectangle_4500" data-name="Rectangle 4500" width="29.667" height="2.243" transform="translate(8.923 65.592) rotate(-70)" fill="#fff"/>
        <rect id="Rectangle_4501" data-name="Rectangle 4501" width="29.667" height="2.243" transform="translate(15.116 67.454) rotate(-80)" fill="#fff"/>
      </g>
    </g>
    <path id="Path_81" data-name="Path 81" d="M241.574,71.586V89.161h9.676v4.632h-15.2V71.586Z" transform="translate(-145.368 -44.085)" fill="#fff"/>
    <path id="Path_82" data-name="Path 82" d="M281.635,71.586h5.52v8.629h1.554l6.821-8.629h6.535L293.5,82.468l8.914,11.325h-6.852l-6.821-8.946h-1.586v8.946h-5.52Z" transform="translate(-173.438 -44.085)" fill="#fff"/>
    <g id="Group_393" data-name="Group 393" transform="translate(0 -0.001)">
      <g id="Group_392" data-name="Group 392" clip-path="url(#clip-path-2)">
        <path id="Path_83" data-name="Path 83" d="M382.479,78.819a7.4,7.4,0,0,1-.491,2.633A6.93,6.93,0,0,1,380.5,83.8a7.093,7.093,0,0,1-2.554,1.665,9.924,9.924,0,0,1-3.68.619h-4.7v7.709h-5.52V71.586h10.215a9.463,9.463,0,0,1,4.584,1,6.665,6.665,0,0,1,2.728,2.649,7.336,7.336,0,0,1,.9,3.585m-8.566,2.633a3.882,3.882,0,0,0,1.634-.3,2.1,2.1,0,0,0,.983-.9,2.905,2.905,0,0,0,.333-1.428,2.511,2.511,0,0,0-.73-1.9,3.109,3.109,0,0,0-2.221-.7h-4.346v5.234Z" transform="translate(-224.19 -44.085)" fill="#fff"/>
        <path id="Path_84" data-name="Path 84" d="M428.067,93.659a11.846,11.846,0,0,1-4.442-.825,11.193,11.193,0,0,1-3.632-2.332,10.764,10.764,0,0,1-2.458-3.585,12.268,12.268,0,0,1,0-9.168,10.785,10.785,0,0,1,2.458-3.585,11.211,11.211,0,0,1,3.632-2.332,11.853,11.853,0,0,1,4.442-.825,11.974,11.974,0,0,1,4.457.825,10.835,10.835,0,0,1,6.075,5.917,12.268,12.268,0,0,1,0,9.168,10.776,10.776,0,0,1-2.458,3.585,11.193,11.193,0,0,1-3.632,2.332,11.846,11.846,0,0,1-4.441.825m0-4.727a5.413,5.413,0,0,0,3.045-.856,5.8,5.8,0,0,0,2.03-2.348,8.3,8.3,0,0,0,0-6.8,5.819,5.819,0,0,0-2.03-2.332,5.413,5.413,0,0,0-3.045-.856,5.468,5.468,0,0,0-3.078.856,5.7,5.7,0,0,0-2.014,2.332,8.466,8.466,0,0,0,0,6.8,5.674,5.674,0,0,0,2.014,2.348,5.468,5.468,0,0,0,3.078.856" transform="translate(-256.582 -43.729)" fill="#fff"/>
        <path id="Path_85" data-name="Path 85" d="M493.089,71.586a9.461,9.461,0,0,1,4.584,1,6.668,6.668,0,0,1,2.728,2.649,7.447,7.447,0,0,1,.412,6.218,6.924,6.924,0,0,1-1.491,2.348,7.094,7.094,0,0,1-2.554,1.665,9.932,9.932,0,0,1-3.68.619h-4.695v7.709h-5.52V71.586Zm2.6,7.233a2.51,2.51,0,0,0-.73-1.9,3.109,3.109,0,0,0-2.221-.7h-4.346v5.234h4.346a3.883,3.883,0,0,0,1.634-.3,2.1,2.1,0,0,0,.983-.9,2.9,2.9,0,0,0,.333-1.428m.191,5.362,5.837,9.612h-6.091l-5.52-9.612Z" transform="translate(-297.366 -44.085)" fill="#fff"/>
        <path id="Path_86" data-name="Path 86" d="M548.993,71.586a9.459,9.459,0,0,1,4.584,1,6.662,6.662,0,0,1,2.728,2.649,7.449,7.449,0,0,1,.413,6.218,6.922,6.922,0,0,1-1.491,2.348,7.092,7.092,0,0,1-2.554,1.665,9.928,9.928,0,0,1-3.68.619h-4.7v7.709h-5.52V71.586Zm2.6,7.233a2.51,2.51,0,0,0-.73-1.9,3.108,3.108,0,0,0-2.221-.7H544.3v5.234h4.346a3.882,3.882,0,0,0,1.633-.3,2.1,2.1,0,0,0,.984-.9,2.9,2.9,0,0,0,.333-1.428m.19,5.362,5.837,9.612h-6.091l-5.52-9.612Z" transform="translate(-331.794 -44.085)" fill="#fff"/>
        <path id="Path_87" data-name="Path 87" d="M603.61,76.218H602.5l-6.154,17.575h-5.71l8.121-22.207h8.756l8.058,22.207h-5.71Zm-7.043,8.5H609.51v4.632H596.567Z" transform="translate(-363.729 -44.085)" fill="#fff"/>
        <path id="Path_88" data-name="Path 88" d="M663.817,86.68a2.919,2.919,0,0,0,.65,1.475,2.738,2.738,0,0,0,1.206.793,4.939,4.939,0,0,0,1.57.238,3.72,3.72,0,0,0,2.3-.619,1.927,1.927,0,0,0,.809-1.6,1.686,1.686,0,0,0-.492-1.269,3.991,3.991,0,0,0-1.364-.809q-.873-.333-2.015-.682-1.269-.349-2.57-.809a11.536,11.536,0,0,1-2.411-1.174,5.105,5.105,0,0,1-2.411-4.711,5.812,5.812,0,0,1,1.079-3.553,6.634,6.634,0,0,1,2.919-2.2,11.167,11.167,0,0,1,4.219-.745,10.833,10.833,0,0,1,3.839.634,6.659,6.659,0,0,1,4.315,4.886l-5.076.888a2.1,2.1,0,0,0-.571-1.142,2.68,2.68,0,0,0-1.062-.65,3.859,3.859,0,0,0-1.222-.206,3.727,3.727,0,0,0-1.4.254,2.539,2.539,0,0,0-1.031.73,1.68,1.68,0,0,0-.4,1.11,1.516,1.516,0,0,0,.46,1.142,4.243,4.243,0,0,0,1.253.793q.793.35,1.745.666,1.3.413,2.665.889a12.236,12.236,0,0,1,2.538,1.221,5.9,5.9,0,0,1,1.888,1.9,5.445,5.445,0,0,1,.713,2.9,6.273,6.273,0,0,1-.92,3.363,6.4,6.4,0,0,1-2.76,2.379,10.722,10.722,0,0,1-4.663.888,12.5,12.5,0,0,1-4.267-.682,7.537,7.537,0,0,1-3.093-2.015,6.677,6.677,0,0,1-1.586-3.268Z" transform="translate(-405.631 -43.729)" fill="#fff"/>
      </g>
    </g>
  </g>
</svg>
